<?xml version="1.0" standalone="no"?>
<!DOCTYPE svg PUBLIC "-//W3C//DTD SVG 20010904//EN"
 "http://www.w3.org/TR/2001/REC-SVG-20010904/DTD/svg10.dtd">
<svg version="1.0" xmlns="http://www.w3.org/2000/svg"
 width="512.000000pt" height="512.000000pt" viewBox="0 0 512.000000 512.000000"
 preserveAspectRatio="xMidYMid meet">
<metadata>
Created by potrace 1.14, written by Peter Selinger 2001-2017
</metadata>
<g transform="translate(0.000000,512.000000) scale(0.100000,-0.100000)"
fill="#000000" stroke="none">
<path d="M1270 4953 c-43 -7 -154 -45 -170 -57 -8 -7 -28 -18 -44 -26 -98 -49
-221 -227 -242 -350 -2 -14 -6 -36 -8 -50 -3 -14 -5 -224 -5 -467 l-1 -441
-30 -11 c-66 -22 -172 -155 -198 -245 -11 -40 -13 -444 -3 -501 15 -80 48
-141 108 -203 47 -47 157 -112 191 -112 9 0 12 -76 12 -345 0 -320 -1 -346
-17 -352 -155 -54 -443 -187 -443 -204 0 -4 -8 -10 -18 -13 -30 -10 -118 -99
-141 -143 -21 -42 -21 -49 -21 -623 0 -627 0 -630 52 -644 13 -3 927 -6 2031
-6 2185 0 2058 -3 2073 53 3 13 4 105 2 205 -3 158 -5 184 -21 199 -16 16 -44
18 -277 21 l-260 3 0 199 0 199 541 3 540 3 19 25 c19 24 20 53 20 923 0 971
1 946 -52 961 -13 3 -366 6 -784 6 l-762 0 -4 168 c-3 162 -4 169 -35 233 -17
36 -51 88 -77 114 l-46 49 0 121 0 122 54 37 c90 62 153 139 208 256 47 99 52
133 52 342 1 176 -1 199 -17 215 -16 16 -44 18 -283 21 l-265 3 -19 45 c-46
107 -175 199 -345 246 -78 21 -95 22 -685 24 -333 1 -616 0 -630 -3z m1770
-1309 c0 -54 -1 -56 -22 -50 -13 3 -31 6 -41 6 -15 0 -18 7 -15 42 2 35 7 43
28 49 48 13 50 12 50 -47z m-1856 -1229 c49 -53 87 -79 196 -139 l135 -74 3
-109 3 -109 -113 -29 c-62 -15 -165 -43 -228 -62 -63 -18 -120 -33 -127 -33
-10 0 -13 66 -13 310 l0 310 42 0 c38 0 46 -5 102 -65z"/>
</g>
</svg>
